<!-- icon666.com - MILLIONS vector ICONS FREE --><svg viewBox="0 0 20 20" xmlns="http://www.w3.org/2000/svg"><path d="m6 10c0 .5304-.21071 1.0391-.58579 1.4142-.37507.3751-.88378.5858-1.41421.5858s-1.03914-.2107-1.41421-.5858c-.37508-.3751-.58579-.8838-.58579-1.4142 0-.53043.21071-1.03914.58579-1.41421.37507-.37508.88378-.58579 1.41421-.58579s1.03914.21071 1.41421.58579c.37508.37507.58579.88378.58579 1.41421zm6 0c0 .5304-.2107 1.0391-.5858 1.4142s-.8838.5858-1.4142.5858c-.53043 0-1.03914-.2107-1.41421-.5858-.37508-.3751-.58579-.8838-.58579-1.4142 0-.53043.21071-1.03914.58579-1.41421.37507-.37508.88378-.58579 1.41421-.58579.5304 0 1.0391.21071 1.4142.58579.3751.37507.5858.88378.5858 1.41421zm4 2c.5304 0 1.0391-.2107 1.4142-.5858s.5858-.8838.5858-1.4142c0-.53043-.2107-1.03914-.5858-1.41421-.3751-.37508-.8838-.58579-1.4142-.58579s-1.0391.21071-1.4142.58579c-.3751.37507-.5858.88378-.5858 1.41421 0 .5304.2107 1.0391.5858 1.4142s.8838.5858 1.4142.5858z" fill="#898290"></path></svg>